<svg width="151" height="30" viewBox="0 0 151 30" fill="none" xmlns="http://www.w3.org/2000/svg">
<path d="M14.5217 12.6597C17.6494 13.0785 19.2133 14.5654 19.2133 17.1204C19.2133 18.9843 18.4579 20.555 16.9472 21.8325C15.4366 23.089 13.5323 23.7173 11.2343 23.7173H0L4.75544 1.72775H14.394C16.16 1.72775 17.5962 2.19895 18.7026 3.14136C19.8303 4.06283 20.3941 5.1623 20.3941 6.43979C20.3941 8.11518 19.8729 9.49738 18.8303 10.5864C17.7877 11.6545 16.3515 12.3456 14.5217 12.6597ZM13.4046 6.28272H9.03215L8.10659 10.5236H12.479C13.3089 10.5236 14.0004 10.2723 14.5536 9.76963C15.1281 9.26702 15.4153 8.64921 15.4153 7.91623C15.4153 7.41361 15.2451 7.01571 14.9046 6.72251C14.5642 6.42932 14.0642 6.28272 13.4046 6.28272ZM6.25548 19.1623H10.8513C11.6812 19.1623 12.3727 18.911 12.9259 18.4084C13.4791 17.8848 13.7557 17.2565 13.7557 16.5236C13.7557 16.0419 13.5855 15.6544 13.245 15.3613C12.9046 15.0681 12.4152 14.9215 11.7769 14.9215H7.18104L6.25548 19.1623Z" fill="white"/>
<path d="M21.6344 16.1152L23.4855 7.3822H28.592L26.5813 16.7435C26.4111 17.5602 26.5281 18.2199 26.9324 18.7225C27.3579 19.2042 28.0069 19.445 28.8792 19.445C29.709 19.445 30.4431 19.1937 31.0814 18.6911C31.741 18.1885 32.1559 17.5393 32.3261 16.7435L34.3368 7.3822H39.4433L37.305 17.3717C36.8582 19.5079 35.8156 21.1518 34.1772 22.3037C32.5602 23.4555 30.5708 24.0314 28.209 24.0314C25.8472 24.0314 24.0387 23.288 22.7833 21.801C21.528 20.3141 21.145 18.4188 21.6344 16.1152Z" fill="white"/>
<path d="M46.4598 22.3351L53.577 7.3822H59.0665L48.1833 30H42.6938L45.7896 23.7173H41.9597L40.5554 7.3822H45.7257L46.4598 22.3351Z" fill="white"/>
<path d="M67.5105 23.7173H62.0848L65.8189 6.43979H59.2762L60.2975 1.72775H78.8086L77.7873 6.43979H71.2446L67.5105 23.7173Z" fill="white"/>
<path d="M75.6991 16.9005C75.6991 14.2199 76.6991 11.9162 78.6992 9.98953C80.7205 8.04188 83.1355 7.06806 85.944 7.06806C88.2633 7.06806 90.1463 7.71728 91.5931 9.01571C93.04 10.2932 93.7634 12.0209 93.7634 14.199C93.7634 16.8796 92.7634 19.1937 90.7633 21.1414C88.7633 23.0681 86.3696 24.0314 83.5823 24.0314C81.2418 24.0314 79.3375 23.3927 77.8694 22.1152C76.4225 20.8168 75.6991 19.0785 75.6991 16.9005ZM80.9971 16.4921C80.9971 17.3717 81.2524 18.0838 81.7631 18.6283C82.295 19.1728 82.9972 19.445 83.8695 19.445C85.1249 19.445 86.1994 18.9633 87.093 18C88.0079 17.0157 88.4654 15.8848 88.4654 14.6073C88.4654 13.7277 88.1994 13.0157 87.6675 12.4712C87.1568 11.9267 86.4653 11.6545 85.593 11.6545C84.3376 11.6545 83.2525 12.1466 82.3376 13.1309C81.4439 14.0942 80.9971 15.2147 80.9971 16.4921Z" fill="white"/>
<path d="M102.605 23.7173H97.1796L100.914 6.43979H94.371L95.3923 1.72775H113.903L112.882 6.43979H106.339L102.605 23.7173Z" fill="white"/>
<path d="M118.422 7.3822L117.56 11.2775C118.518 9.32984 119.603 8.0733 120.815 7.50785C122.028 6.94241 123.22 6.90052 124.39 7.3822L123.369 12.0942C121.794 11.466 120.379 11.4031 119.124 11.9058C117.869 12.4084 117.103 13.3194 116.826 14.6387L114.879 23.7173H109.773L113.315 7.3822H118.422Z" fill="white"/>
<path d="M127.103 2.98429C127.103 2.16754 127.4 1.46597 127.996 0.879581C128.592 0.293194 129.305 0 130.135 0C130.964 0 131.677 0.293194 132.273 0.879581C132.869 1.46597 133.167 2.16754 133.167 2.98429C133.167 3.7801 132.869 4.48168 132.273 5.089C131.677 5.67539 130.964 5.96859 130.135 5.96859C129.305 5.96859 128.592 5.67539 127.996 5.089C127.4 4.48168 127.103 3.7801 127.103 2.98429ZM128.188 23.7173H123.081L126.624 7.3822H131.73L128.188 23.7173Z" fill="white"/>
<path d="M145.542 7.06806C147.202 7.06806 148.521 7.67539 149.5 8.89005C150.5 10.1047 151 11.7487 151 13.822C151 16.5654 150.149 18.9529 148.447 20.9843C146.745 23.0157 144.745 24.0314 142.447 24.0314C141.234 24.0314 140.149 23.5707 139.191 22.6492C138.255 21.7277 137.691 20.4921 137.5 18.9424L135.106 30H129.999L134.883 7.3822H139.989L139.095 11.5916C139.883 10.2094 140.84 9.10995 141.968 8.29319C143.117 7.47644 144.308 7.06806 145.542 7.06806ZM141.266 19.445C142.457 19.445 143.489 18.9633 144.362 18C145.255 17.0157 145.702 15.8848 145.702 14.6073C145.702 13.7487 145.447 13.0471 144.936 12.5026C144.425 11.9372 143.776 11.6545 142.989 11.6545C141.67 11.6545 140.542 12.1466 139.606 13.1309C138.691 14.0942 138.234 15.2147 138.234 16.4921C138.234 17.3717 138.5 18.0838 139.032 18.6283C139.585 19.1728 140.33 19.445 141.266 19.445Z" fill="white"/>
</svg>
